<svg xmlns="http://www.w3.org/2000/svg" style="position: absolute; width: 0; height: 0; overflow: hidden;">
    <defs>
        <symbol id="icon-github" viewBox="0 0 32 32">
            <title>github</title>
            <path d="M16 0c-8.84 0-16 7.164-16 16 0 7.070 4.584 13.066 10.94 15.18 0.8 0.15 1.094-0.344 1.094-0.77 0-0.38-0.014-1.386-0.020-2.72-4.452 0.966-5.39-2.146-5.39-2.146-0.728-1.848-1.78-2.34-1.78-2.34-1.45-0.992 0.112-0.972 0.112-0.972 1.606 0.112 2.45 1.648 2.45 1.648 1.428 2.446 3.746 1.74 4.66 1.33 0.144-1.034 0.556-1.74 1.014-2.14-3.554-0.4-7.288-1.776-7.288-7.906 0-1.746 0.62-3.174 1.646-4.294-0.18-0.404-0.72-2.030 0.14-4.234 0 0 1.34-0.43 4.4 1.64 1.28-0.356 2.64-0.532 4-0.54 1.36 0.008 2.72 0.184 4 0.54 3.040-2.070 4.38-1.64 4.38-1.64 0.86 2.204 0.32 3.83 0.16 4.234 1.020 1.12 1.64 2.548 1.64 4.294 0 6.146-3.74 7.5-7.3 7.894 0.56 0.48 1.080 1.46 1.080 2.96 0 2.14-0.020 3.86-0.020 4.38 0 0.42 0.28 0.92 1.1 0.76 6.402-2.098 10.982-8.098 10.982-15.158 0-8.836-7.164-16-16-16z"/>
        </symbol>
        <symbol id="icon-twitter" viewBox="0 0 32 32">
            <title>twitter</title>
            <path d="M32 6.076c-1.18 0.52-2.44 0.874-3.77 1.034 1.354-0.814 2.396-2.1 2.886-3.632-1.268 0.74-2.674 1.28-4.17 1.58-1.196-1.28-2.9-2.080-4.792-2.080-3.624 0-6.564 2.94-6.564 6.56 0 0.52 0.060 1.020 0.17 1.5-5.456-0.26-10.294-2.88-13.532-6.84-0.568 0.962-0.888 2.082-0.888 3.302 0 2.28 1.16 4.286 2.92 5.464-1.076-0.034-2.090-0.33-2.974-0.82v0.080c0 3.18 2.26 5.836 5.266 6.44-0.552 0.148-1.132 0.228-1.73 0.228-0.42 0-0.82-0.040-1.22-0.116 0.84 2.608 3.26 4.506 6.14 4.56-2.24 1.76-5.080 2.808-8.14 2.808-0.52 0-1.040-0.030-1.56-0.090 2.92 1.86 6.36 2.948 10.080 2.948 12.080 0 18.68-10 18.68-18.66 0-0.28 0-0.56-0.020-0.84 1.28-0.92 2.4-2.080 3.28-3.4z"/>
        </symbol>
        <symbol id="icon-facebook" viewBox="0 0 32 32">
            <title>facebook</title>
            <path d="M30.234 0h-28.468c-0.976 0-1.766 0.79-1.766 1.766v28.468c0 0.976 0.79 1.766 1.766 1.766h15.326v-12.392h-4.172v-4.828h4.172v-3.566c0-4.132 2.524-6.38 6.212-6.38 1.766 0 3.284 0.128 3.726 0.188v4.32h-2.56c-2 0-2.39 0.96-2.39 2.36v3.080h4.78l-0.62 4.84h-4.16v12.378h8.154c0.976 0 1.766-0.79 1.766-1.766v-28.468c0-0.976-0.79-1.766-1.766-1.766z"/>
        </symbol>
        <symbol id="icon-fb" viewBox="0 0 32 32">
            <title>facebook-simbol</title>
            <path d="M24.037,0.006L19.887,0c-4.662,0-7.676,3.091-7.676,7.875v3.632H8.038c-0.359,0-0.652,0.291-0.652,0.652v5.262
			c0,0.359,0.293,0.652,0.652,0.652h4.173v13.276c0,0.359,0.293,0.652,0.653,0.652h5.442c0.361,0,0.653-0.293,0.653-0.652V18.072
			h4.878c0.361,0,0.652-0.293,0.652-0.652l0.003-5.262c0-0.172-0.07-0.338-0.192-0.461c-0.122-0.122-0.288-0.19-0.461-0.19h-4.88
			V8.428c0-1.479,0.353-2.23,2.279-2.23l2.796-0.002c0.361,0,0.652-0.293,0.652-0.652V0.66C24.687,0.299,24.396,0.008,24.037,0.006
			L24.037,0.006z M24.037,0.006"/>
        </symbol>
        <symbol id="icon-googleplus" viewBox="0 0 32 32">
            <title>googleplus</title>
            <path d="M10.18 14.546v3.49h5.78c-0.232 1.5-1.746 4.394-5.774 4.394-3.474 0-6.31-2.88-6.31-6.43s2.83-6.43 6.304-6.43c1.98 0 3.304 0.844 4.060 1.572l2.764-2.66c-1.774-1.66-4.074-2.66-6.82-2.66-5.634-0.002-10.184 4.558-10.184 10.178s4.552 10.18 10.18 10.18c5.88 0 9.776-4.13 9.776-9.948 0-0.668-0.072-1.18-0.16-1.686h-9.616zM32 14.546h-2.91v-2.91h-2.91v2.91h-2.908v2.908h2.91v2.91h2.92v-2.91h2.898z"/>
        </symbol>
        <symbol id="icon-youtube" viewBox="0 0 32 32">
            <title>youtube</title>
            <path d="M0 14.69v2.52c0 2.59 0.32 5.18 0.32 5.18s0.312 2.2 1.272 3.174c1.216 1.274 2.816 1.234 3.528 1.368 2.56 0.246 10.88 0.32 10.88 0.32s6.724-0.008 11.2-0.332c0.628-0.076 1.992-0.080 3.208-1.356 0.96-0.972 1.272-3.176 1.272-3.176s0.32-2.588 0.32-5.18v-2.516c0-2.592-0.32-5.18-0.32-5.18s-0.312-2.204-1.272-3.176c-1.216-1.276-2.58-1.28-3.208-1.356-4.476-0.324-11.2-0.332-11.2-0.332s-8.32 0.072-10.88 0.32c-0.712 0.134-2.312 0.094-3.528 1.368-0.96 0.974-1.272 3.174-1.272 3.174s-0.32 2.592-0.32 5.18zM12.696 20.15v-8.99l8.646 4.51-8.64 4.48z"/>
        </symbol>
        <symbol id="icon-wordpress" viewBox="0 0 32 32">
            <title>wordpress</title>
            <path d="M28.624 9.1c1.12 2.048 1.76 4.4 1.76 6.9 0 5.306-2.876 9.94-7.152 12.434l4.394-12.704c0.82-2.052 1.094-3.694 1.094-5.152 0-0.54-0.036-1.040-0.096-1.48zM17.984 9.238c0.864-0.040 1.644-0.14 1.644-0.14 0.776-0.1 0.684-1.24-0.090-1.2 0 0-2.34 0.18-3.84 0.18-1.42 0-3.8-0.2-3.8-0.2-0.78-0.040-0.88 1.14-0.1 1.18 0 0 0.72 0.080 1.5 0.12l2.24 6.14-3.16 9.44-5.238-15.558c0.864-0.040 1.644-0.134 1.644-0.134 0.78-0.1 0.688-1.24-0.088-1.194 0 0-2.328 0.184-3.832 0.184-0.266 0-0.584-0.010-0.92-0.020 2.604-3.836 7.036-6.416 12.056-6.416 3.744 0 7.154 1.43 9.714 3.776-0.060-0.004-0.12-0.012-0.186-0.012-1.414 0-2.416 1.23-2.416 2.552 0 1.186 0.684 2.19 1.412 3.374 0.548 0.96 1.188 2.19 1.188 3.968 0 1.22-0.474 2.66-1.096 4.64l-1.434 4.78-5.2-15.48zM16 30.38c-1.412 0-2.774-0.206-4.064-0.584l4.316-12.54 4.42 12.114c0.032 0.070 0.066 0.136 0.104 0.2-1.494 0.524-3.1 0.814-4.776 0.814zM1.614 16c0-2.086 0.448-4.066 1.246-5.854l6.86 18.8c-4.794-2.332-8.104-7.252-8.104-12.946zM16 0c-8.82 0-16 7.18-16 16s7.18 16 16 16 16-7.18 16-16-7.18-16-16-16z"/>
        </symbol>
        <symbol id="icon-vk" viewBox="0 0 32 32">
            <title>vk</title>
            <path d="M15.656 25.052h1.914s0.576-0.064 0.872-0.38c0.28-0.294 0.28-0.84 0.28-0.84s-0.040-2.568 1.16-2.946c1.18-0.374 2.68 2.48 4.28 3.576 1.22 0.84 2.14 0.66 2.14 0.66l4.28-0.060s2.24-0.14 1.18-1.9c-0.080-0.14-0.6-1.3-3.16-3.68-2.68-2.48-2.32-2.080 0.9-6.38 1.96-2.62 2.76-4.22 2.5-4.9-0.22-0.64-1.68-0.48-1.68-0.48l-4.8 0.040s-0.36-0.040-0.62 0.12-0.42 0.52-0.42 0.52-0.76 2.040-1.78 3.76c-2.162 3.638-3.022 3.838-3.362 3.598-0.806-0.52-0.6-2.106-0.6-3.24 0-3.52 0.54-5-1.040-5.38-0.52-0.12-0.908-0.2-2.246-0.22-1.72-0.020-3.17 0.012-3.992 0.414-0.54 0.27-0.96 0.868-0.72 0.9 0.32 0.040 1.040 0.196 1.42 0.716 0.5 0.674 0.48 2.18 0.48 2.18s0.28 4.154-0.66 4.67c-0.66 0.348-1.54-0.374-3.46-3.674-0.98-1.68-1.72-3.56-1.72-3.56s-0.14-0.34-0.4-0.54c-0.3-0.22-0.74-0.3-0.74-0.3l-4.58 0.040s-0.68 0.020-0.92 0.32c-0.22 0.26-0.020 0.82-0.020 0.82s3.58 8.38 7.64 12.6c3.72 3.87 7.94 3.62 7.94 3.62z"/>
        </symbol>
        <symbol id="icon-rocket" viewBox="0 0 32 32">
            <title>rocket</title>
            <path class="path1"
                  d="M691.2 460.8c-70.579 0-128-57.421-128-128s57.421-128 128-128 128 57.421 128 128-57.421 128-128 128zM691.2 256c-42.347 0-76.8 34.453-76.8 76.8s34.453 76.8 76.8 76.8 76.8-34.453 76.8-76.8-34.453-76.8-76.8-76.8z"/>
            <path class="path2"
                  d="M25.603 1024c-6.675 0-13.219-2.613-18.106-7.499-7.034-7.034-9.355-17.502-5.957-26.85 78.781-216.648 161.613-326.499 246.195-326.499 27.883 0 53.979 11.96 77.566 35.546 37.283 37.283 38.611 74.394 33.162 98.96-17.125 77.187-126.171 152.822-324.115 224.802-2.853 1.038-5.813 1.541-8.746 1.541zM247.736 714.354c-25.354 0-55.19 22.214-86.282 64.237-30.578 41.33-61.274 100.205-91.525 175.477 68.352-27.478 123.302-55.379 163.806-83.205 54.648-37.542 70.808-66.562 74.742-84.294 3.944-17.779-2.395-34.682-19.382-51.667-13.826-13.826-27.354-20.547-41.36-20.547z"/>
            <path class="path3"
                  d="M998.4 0c-132.848 0-251.256 22.534-351.939 66.981-82.997 36.638-154.075 88.075-211.258 152.882-10.674 12.098-20.552 24.334-29.691 36.586-44.142 2.942-89.275 20.47-134.362 52.221-38.13 26.851-76.459 64.014-113.923 110.458-62.965 78.054-101.706 154.987-103.325 158.226-5.605 11.211-2.25 24.814 7.904 32.166 4.501 3.258 9.758 4.856 14.992 4.856 6.573 0 13.109-2.52 18.064-7.434 0.243-0.24 24.714-24.299 66.469-47.926 34.41-19.474 87.461-42.336 151.613-46.384 16.219 41.541 62.662 91.181 84.954 113.47 22.291 22.291 71.931 68.734 113.472 84.955-4.046 64.152-26.91 117.202-46.382 151.611-23.629 41.757-47.686 66.227-47.89 66.432-8.878 8.878-10.006 22.885-2.666 33.070 4.952 6.87 12.77 10.634 20.782 10.634 3.867 0 7.779-0.877 11.434-2.704 3.237-1.619 80.17-40.36 158.226-103.325 46.443-37.464 83.606-75.794 110.458-113.922 31.75-45.088 49.278-90.221 52.221-134.363 12.251-9.139 24.49-19.019 36.586-29.693 64.806-57.181 116.243-128.259 152.883-211.258 44.443-100.682 66.979-219.091 66.979-351.939v-25.6h-25.6zM159.102 502.187c48.797-70.8 123.384-158.595 207.446-186.232-33.222 58.203-50.422 111.691-56.611 145.555-59.323 3.626-110.467 20.89-150.835 40.677zM521.87 864.781c19.762-40.35 36.995-91.453 40.619-150.718 33.859-6.187 87.336-23.384 145.528-56.597-27.658 83.92-115.381 158.49-186.147 207.315zM770.262 550.405c-106.48 93.952-216.794 115.195-232.662 115.195-0.102 0-10.581-0.23-38.867-20.136-19.728-13.883-42.682-33.618-64.63-55.566-21.95-21.95-41.683-44.902-55.566-64.632-19.906-28.285-20.136-38.763-20.136-38.866 0-15.869 21.243-126.182 115.197-232.662 112.416-127.406 284.533-197.059 498.894-202.227-5.17 214.358-74.822 386.477-202.229 498.894z"/>
        </symbol>
        <symbol id="icon-instagram" viewBox="0 0 32 32">
            <title>instagram</title>
            <path d="M16 2.881c4.275 0 4.781 0.019 6.462 0.094 1.563 0.069 2.406 0.331 2.969 0.55 0.744 0.288 1.281 0.638 1.837 1.194 0.563 0.563 0.906 1.094 1.2 1.838 0.219 0.563 0.481 1.412 0.55 2.969 0.075 1.688 0.094 2.194 0.094 6.463s-0.019 4.781-0.094 6.463c-0.069 1.563-0.331 2.406-0.55 2.969-0.288 0.744-0.637 1.281-1.194 1.837-0.563 0.563-1.094 0.906-1.837 1.2-0.563 0.219-1.413 0.481-2.969 0.55-1.688 0.075-2.194 0.094-6.463 0.094s-4.781-0.019-6.463-0.094c-1.563-0.069-2.406-0.331-2.969-0.55-0.744-0.288-1.281-0.637-1.838-1.194-0.563-0.563-0.906-1.094-1.2-1.837-0.219-0.563-0.481-1.413-0.55-2.969-0.075-1.688-0.094-2.194-0.094-6.463s0.019-4.781 0.094-6.463c0.069-1.563 0.331-2.406 0.55-2.969 0.288-0.744 0.638-1.281 1.194-1.838 0.563-0.563 1.094-0.906 1.838-1.2 0.563-0.219 1.412-0.481 2.969-0.55 1.681-0.075 2.188-0.094 6.463-0.094zM16 0c-4.344 0-4.887 0.019-6.594 0.094-1.7 0.075-2.869 0.35-3.881 0.744-1.056 0.412-1.95 0.956-2.837 1.85-0.894 0.888-1.438 1.781-1.85 2.831-0.394 1.019-0.669 2.181-0.744 3.881-0.075 1.713-0.094 2.256-0.094 6.6s0.019 4.887 0.094 6.594c0.075 1.7 0.35 2.869 0.744 3.881 0.413 1.056 0.956 1.95 1.85 2.837 0.887 0.887 1.781 1.438 2.831 1.844 1.019 0.394 2.181 0.669 3.881 0.744 1.706 0.075 2.25 0.094 6.594 0.094s4.888-0.019 6.594-0.094c1.7-0.075 2.869-0.35 3.881-0.744 1.050-0.406 1.944-0.956 2.831-1.844s1.438-1.781 1.844-2.831c0.394-1.019 0.669-2.181 0.744-3.881 0.075-1.706 0.094-2.25 0.094-6.594s-0.019-4.887-0.094-6.594c-0.075-1.7-0.35-2.869-0.744-3.881-0.394-1.063-0.938-1.956-1.831-2.844-0.887-0.887-1.781-1.438-2.831-1.844-1.019-0.394-2.181-0.669-3.881-0.744-1.712-0.081-2.256-0.1-6.6-0.1v0z"/>
            <path d="M16 7.781c-4.537 0-8.219 3.681-8.219 8.219s3.681 8.219 8.219 8.219 8.219-3.681 8.219-8.219c0-4.537-3.681-8.219-8.219-8.219zM16 21.331c-2.944 0-5.331-2.387-5.331-5.331s2.387-5.331 5.331-5.331c2.944 0 5.331 2.387 5.331 5.331s-2.387 5.331-5.331 5.331z"/>
            <path d="M26.462 7.456c0 1.060-0.859 1.919-1.919 1.919s-1.919-0.859-1.919-1.919c0-1.060 0.859-1.919 1.919-1.919s1.919 0.859 1.919 1.919z"/>
        </symbol>
        <symbol id="icon-eye" viewBox="0 0 32 32">
            <title>eye</title>
            <path d="M16 9v0 0c9 0 13 7 13 7s-4 7-13 7c-9 0-13-7-13-7s4-7 13-7zM16 10c-8 0-11.8 6-11.8 6s3.8 6 11.8 6c8 0 11.8-6 11.8-6s-3.8-6-11.8-6v0 0zM16 20v0 0c-2.209 0-4-1.791-4-4s1.791-4 4-4c2.209 0 4 1.791 4 4s-1.791 4-4 4zM16 19c1.657 0 3-1.343 3-3s-1.343-3-3-3c-1.657 0-3 1.343-3 3s1.343 3 3 3v0 0zM16 17c0.552 0 1-0.448 1-1s-0.448-1-1-1c-0.552 0-1 0.448-1 1s0.448 1 1 1v0 0z"/>
        </symbol>
        <symbol id="icon-youtubecube" viewBox="0 0 24 28">
            <title>youtube</title>
            <path d="M15.172 19.437v3.297c0 0.703-0.203 1.047-0.609 1.047-0.234 0-0.469-0.109-0.703-0.344v-4.703c0.234-0.234 0.469-0.344 0.703-0.344 0.406 0 0.609 0.359 0.609 1.047zM20.453 19.453v0.719h-1.406v-0.719c0-0.703 0.234-1.062 0.703-1.062s0.703 0.359 0.703 1.062zM5.359 16.047h1.672v-1.469h-4.875v1.469h1.641v8.891h1.563v-8.891zM9.859 24.938h1.391v-7.719h-1.391v5.906c-0.313 0.438-0.609 0.656-0.891 0.656-0.187 0-0.297-0.109-0.328-0.328-0.016-0.047-0.016-0.219-0.016-0.547v-5.688h-1.391v6.109c0 0.547 0.047 0.906 0.125 1.141 0.125 0.391 0.453 0.578 0.906 0.578 0.5 0 1.031-0.313 1.594-0.953v0.844zM16.562 22.625v-3.078c0-0.719-0.031-1.234-0.141-1.547-0.172-0.578-0.562-0.875-1.109-0.875-0.516 0-1 0.281-1.453 0.844v-3.391h-1.391v10.359h1.391v-0.75c0.469 0.578 0.953 0.859 1.453 0.859 0.547 0 0.938-0.297 1.109-0.859 0.109-0.328 0.141-0.844 0.141-1.563zM21.844 22.469v-0.203h-1.422c0 0.562-0.016 0.875-0.031 0.953-0.078 0.375-0.281 0.562-0.625 0.562-0.484 0-0.719-0.359-0.719-1.078v-1.359h2.797v-1.609c0-0.828-0.141-1.422-0.422-1.813-0.406-0.531-0.953-0.797-1.656-0.797-0.719 0-1.266 0.266-1.672 0.797-0.297 0.391-0.438 0.984-0.438 1.813v2.703c0 0.828 0.156 1.437 0.453 1.813 0.406 0.531 0.953 0.797 1.687 0.797s1.313-0.281 1.687-0.828c0.172-0.25 0.297-0.531 0.328-0.844 0.031-0.141 0.031-0.453 0.031-0.906zM12.344 8.203v-3.281c0-0.719-0.203-1.078-0.672-1.078-0.453 0-0.672 0.359-0.672 1.078v3.281c0 0.719 0.219 1.094 0.672 1.094 0.469 0 0.672-0.375 0.672-1.094zM23.578 19.938c0 1.797-0.016 3.719-0.406 5.469-0.297 1.234-1.297 2.141-2.5 2.266-2.875 0.328-5.781 0.328-8.672 0.328s-5.797 0-8.672-0.328c-1.203-0.125-2.219-1.031-2.5-2.266-0.406-1.75-0.406-3.672-0.406-5.469v0c0-1.813 0.016-3.719 0.406-5.469 0.297-1.234 1.297-2.141 2.516-2.281 2.859-0.313 5.766-0.313 8.656-0.313s5.797 0 8.672 0.313c1.203 0.141 2.219 1.047 2.5 2.281 0.406 1.75 0.406 3.656 0.406 5.469zM7.984 0h1.594l-1.891 6.234v4.234h-1.563v-4.234c-0.141-0.766-0.453-1.859-0.953-3.313-0.344-0.969-0.688-1.953-1.016-2.922h1.656l1.109 4.109zM13.766 5.203v2.734c0 0.828-0.141 1.453-0.438 1.844-0.391 0.531-0.938 0.797-1.656 0.797-0.703 0-1.25-0.266-1.641-0.797-0.297-0.406-0.438-1.016-0.438-1.844v-2.734c0-0.828 0.141-1.437 0.438-1.828 0.391-0.531 0.938-0.797 1.641-0.797 0.719 0 1.266 0.266 1.656 0.797 0.297 0.391 0.438 1 0.438 1.828zM19 2.672v7.797h-1.422v-0.859c-0.562 0.656-1.094 0.969-1.609 0.969-0.453 0-0.781-0.187-0.922-0.578-0.078-0.234-0.125-0.609-0.125-1.172v-6.156h1.422v5.734c0 0.328 0 0.516 0.016 0.547 0.031 0.219 0.141 0.344 0.328 0.344 0.281 0 0.578-0.219 0.891-0.672v-5.953h1.422z"/>
        </symbol>
        <symbol id="icon-vimeo" viewBox="0 0 32 32">
            <title>vimeo</title>
            <path d="M31.984 8.55c-0.14 3.12-2.32 7.394-6.526 12.82-4.36 5.664-8.040 8.496-11.060 8.496-1.88 0-3.44-1.724-4.74-5.176l-2.558-9.49c-0.96-3.448-1.986-5.174-3.084-5.174-0.24 0-1.076 0.504-2.51 1.51l-1.506-1.944c1.58-1.392 3.136-2.78 4.67-4.172 2.106-1.824 3.688-2.78 4.74-2.88 2.492-0.24 4.024 1.466 4.6 5.12 0.62 3.94 1.052 6.388 1.294 7.346 0.72 3.268 1.508 4.9 2.37 4.9 0.67 0 1.676-1.060 3.020-3.18 1.34-2.12 2.056-3.732 2.152-4.84 0.192-1.83-0.526-2.748-2.154-2.748-0.766 0-1.556 0.16-2.37 0.52 1.58-5.16 4.58-7.68 9.020-7.52 3.3 0.080 4.84 2.22 4.66 6.4z"/>
        </symbol>
        <symbol id="icon-twitch" viewBox="0 0 32 32">
            <title>twitch</title>
            <path d="M2.786 0l-2.086 5.566v22.26h7.648v4.174h4.176l4.17-4.176h6.26l8.346-8.344v-19.48h-28.512zM5.566 2.78h22.954v15.306l-4.87 4.87h-7.65l-4.17 4.17v-4.17h-6.264v-20.176z"/>
            <path d="M13.22 16.696h2.78v-8.346h-2.78v8.346zM20.868 16.696h2.78v-8.346h-2.78v8.346z"/>
        </symbol>
        <symbol id="icon-tumblr" viewBox="0 0 32 32">
            <title>tumblr</title>
            <path d="M19.416 32c-6.792 0-9.374-5.008-9.374-8.548v-10.456h-3.222v-4.132c4.84-1.75 6.016-6.128 6.28-8.624 0.020-0.172 0.154-0.24 0.23-0.24h4.69v8.152h6.4v4.844h-6.426v9.96c0.020 1.334 0.5 3.16 2.944 3.16h0.12c0.84-0.024 1.98-0.272 2.58-0.556l1.54 4.566c-0.58 0.848-3.2 1.832-5.54 1.872h-0.238z"/>
        </symbol>
        <symbol id="icon-stumbleupon" viewBox="0 0 32 32">
            <title>stumbleupon</title>
            <path d="M16 0c-8.84 0-16 7.164-16 16 0 8.84 7.16 16 16 16s16-7.16 16-16c0-8.836-7.16-16-16-16zM15.176 11.876v6.6c0 2.472-2.256 4.334-4.6 4.334-2.192 0-4.24-1.036-4.472-3.512v-4.138h3.3v3.3c0 0.82 0.58 0.954 1.17 0.954 0.586 0 1.3-0.132 1.3-0.956v-6.6c0.066-2.458 2.106-4.018 4.386-4.018 2.326 0 3.866 1.76 3.866 4.020v1.4l-1.636 0.78-1.664-0.78v-2.208s-0.22-0.24-0.56-0.24c-0.566 0-1.088 0.24-1.088 1.064zM25.896 18.476c0 2.472-2.12 4.148-4.47 4.148-2.348 0-4.6-1.676-4.6-4.15v-3.3h3.3v3.3c0 0.824 0.714 0.956 1.3 0.956 0.588 0 1.172-0.132 1.172-0.956v-3.3h3.28v3.3z"/>
        </symbol>
        <symbol id="icon-spotify" viewBox="0 0 32 32">
            <title>spotify</title>
            <path d="M16 0c-8.8 0-16 7.2-16 16s7.2 16 16 16 16-7.2 16-16-7.12-16-16-16zM23.36 23.12c-0.32 0.48-0.88 0.64-1.36 0.32-3.76-2.32-8.48-2.8-14.080-1.52-0.56 0.16-1.040-0.24-1.2-0.72-0.16-0.56 0.24-1.040 0.72-1.2 6.080-1.36 11.36-0.8 15.52 1.76 0.56 0.24 0.64 0.88 0.4 1.36zM25.28 18.72c-0.4 0.56-1.12 0.8-1.68 0.4-4.32-2.64-10.88-3.44-15.92-1.84-0.64 0.16-1.36-0.16-1.52-0.8s0.16-1.36 0.8-1.52c5.84-1.76 13.040-0.88 18 2.16 0.48 0.24 0.72 1.040 0.32 1.6zM25.44 14.24c-5.12-3.040-13.68-3.36-18.56-1.84-0.8 0.24-1.6-0.24-1.84-0.96-0.24-0.8 0.24-1.6 0.96-1.84 5.68-1.68 15.040-1.36 20.96 2.16 0.72 0.4 0.96 1.36 0.56 2.080-0.4 0.56-1.36 0.8-2.080 0.4z"/>
        </symbol>
        <symbol id="icon-soundcloud" viewBox="0 0 32 32">
            <title>soundcloud</title>
            <path d="M1.546 16.26c-0.068 0-0.124 0.060-0.134 0.132l-0.312 2.874 0.312 2.81c0.010 0.076 0.066 0.13 0.134 0.13 0.066 0 0.12-0.054 0.132-0.13l0.34-2.81-0.36-2.874c0-0.076-0.060-0.132-0.12-0.132zM0.338 17.364c-0.080 0-0.12 0.050-0.14 0.124l-0.22 1.78 0.22 1.744c0 0.074 0.060 0.126 0.12 0.126s0.12-0.060 0.14-0.14l0.28-1.76-0.28-1.78c0-0.080-0.060-0.12-0.12-0.12zM2.778 15.698c-0.080 0-0.16 0.060-0.16 0.14l-0.28 3.42 0.3 3.28c0 0.080 0.060 0.16 0.16 0.16 0.080 0 0.14-0.080 0.16-0.16l0.34-3.3-0.34-3.4c-0.020-0.080-0.080-0.16-0.16-0.16zM4.058 15.558c-0.1 0-0.18 0.080-0.2 0.18l-0.258 3.522 0.28 3.394c0.020 0.104 0.1 0.184 0.2 0.184s0.18-0.080 0.2-0.2l0.32-3.38-0.32-3.5c0-0.1-0.080-0.18-0.18-0.18zM5.6 16.038c-0.006-0.12-0.1-0.2-0.212-0.2-0.12 0-0.212 0.080-0.22 0.2l-0.288 3.242 0.266 3.42c0 0.12 0.1 0.21 0.212 0.21 0.1 0 0.2-0.092 0.2-0.212l0.3-3.42-0.3-3.26zM6.68 13.758c-0.134 0-0.24 0.12-0.24 0.24l-0.28 5.28 0.248 3.42c0 0.12 0.108 0.22 0.24 0.22 0.126 0 0.232-0.12 0.24-0.24l0.28-3.42-0.28-5.3c-0.010-0.14-0.116-0.24-0.24-0.24zM7.928 12.498c-0.14 0-0.26 0.12-0.27 0.26l-0.24 6.5 0.22 3.4c0 0.16 0.12 0.28 0.26 0.28s0.26-0.12 0.28-0.28l0.26-3.4-0.26-6.48c-0.020-0.16-0.14-0.28-0.28-0.28zM9.218 11.898c-0.16 0-0.28 0.12-0.3 0.28l-0.22 7.040 0.22 3.36c0.020 0.16 0.14 0.3 0.3 0.3s0.3-0.14 0.3-0.3l0.26-3.36-0.26-7.040c0-0.16-0.14-0.3-0.3-0.3zM10.878 11.938c0-0.18-0.14-0.32-0.32-0.32-0.16 0-0.32 0.14-0.32 0.32l-0.2 7.26 0.2 3.34c0.020 0.18 0.16 0.32 0.34 0.32s0.32-0.14 0.32-0.32l0.22-3.34-0.22-7.28zM11.878 11.758c-0.18 0-0.34 0.16-0.34 0.34l-0.2 7.1 0.2 3.3c0 0.2 0.16 0.34 0.34 0.34s0.34-0.16 0.34-0.36l0.2-3.3-0.22-7.080c0-0.2-0.16-0.36-0.36-0.36zM13.178 11.958c-0.22 0-0.38 0.18-0.38 0.38l-0.138 6.862 0.18 3.3c0 0.2 0.16 0.37 0.38 0.37 0.2 0 0.36-0.16 0.38-0.38l0.16-3.26-0.18-6.82c-0.016-0.22-0.18-0.38-0.38-0.38zM14.78 10.77c-0.060-0.040-0.14-0.060-0.22-0.060s-0.16 0.020-0.22 0.060c-0.12 0.072-0.2 0.2-0.2 0.34v0.080l-0.14 8.070 0.154 3.268v0.010c0.010 0.080 0.040 0.18 0.1 0.24 0.076 0.080 0.188 0.14 0.312 0.14 0.108 0 0.21-0.060 0.28-0.12 0.076-0.080 0.12-0.18 0.12-0.3l0.020-0.32 0.156-2.94-0.18-8.12c0-0.14-0.080-0.26-0.18-0.32zM16.122 10.038c-0.060-0.060-0.12-0.080-0.2-0.080-0.1 0-0.2 0.020-0.28 0.080-0.1 0.080-0.16 0.2-0.16 0.32v0.040l-0.18 8.82 0.1 1.62 0.080 1.58c0 0.22 0.2 0.42 0.44 0.42s0.44-0.2 0.44-0.44l0.2-3.22-0.2-8.856c0-0.16-0.1-0.294-0.22-0.37zM28.062 14.992c-0.54 0-1.060 0.114-1.52 0.31-0.32-3.54-3.28-6.32-6.92-6.32-0.88 0-1.74 0.18-2.52 0.48-0.3 0.12-0.36 0.24-0.38 0.48v12.5c0.020 0.24 0.2 0.44 0.44 0.46h10.92c2.16 0.020 3.92-1.72 3.92-3.9s-1.76-3.94-3.92-3.94z"/>
        </symbol>
        <symbol id="icon-skype" viewBox="0 0 32 32">
            <title>skype</title>
            <path d="M16.070 25.2c-5.37 0-7.77-2.644-7.77-4.626 0-1.020 0.748-1.73 1.78-1.73 2.3 0 1.7 3.306 5.99 3.306 2.192 0 3.406-1.194 3.406-2.416 0-0.736-0.36-1.55-1.808-1.908l-4.774-1.194c-3.846-0.966-4.544-3.052-4.544-5.008 0-4.068 3.82-5.596 7.408-5.596 3.3 0 7.2 1.832 7.2 4.272 0 1.046-0.92 1.654-1.94 1.654-1.96 0-1.6-2.72-5.56-2.72-1.96 0-3.060 0.888-3.060 2.16s1.54 1.68 2.88 1.986l3.52 0.784c3.86 0.866 4.84 3.132 4.84 5.266 0 3.304-2.54 5.772-7.64 5.772zM30.798 18.682l-0.040 0.18-0.060-0.32c0.020 0.060 0.060 0.1 0.080 0.16 0.16-0.9 0.24-1.82 0.24-2.74 0-2.040-0.4-4.020-1.2-5.9-0.76-1.8-1.86-3.42-3.24-4.8-1.4-1.38-3-2.48-4.8-3.24-1.758-0.842-3.738-1.242-5.778-1.242-0.96 0-1.928 0.094-2.86 0.274l0.16 0.080-0.32-0.046 0.16-0.032c-1.286-0.69-2.73-1.056-4.196-1.056-2.388 0-4.634 0.932-6.324 2.626s-2.62 3.946-2.62 6.34c0 1.526 0.39 3.024 1.126 4.35l0.026-0.166 0.056 0.32-0.080-0.154c-0.152 0.86-0.23 1.734-0.23 2.61 0 2.044 0.4 4.028 1.18 5.896 0.76 1.82 1.84 3.44 3.24 4.82 1.38 1.4 3 2.48 4.8 3.26 1.86 0.8 3.84 1.2 5.88 1.2 0.88 0 1.78-0.080 2.64-0.24l-0.16-0.080 0.32 0.060-0.18 0.040c1.34 0.76 2.84 1.16 4.4 1.16 2.38 0 4.62-0.92 6.32-2.62 1.68-1.68 2.62-3.94 2.62-6.34 0-1.52-0.4-3.020-1.14-4.36z"/>
        </symbol>
        <symbol id="icon-reddit" viewBox="0 0 32 32">
            <title>reddit</title>
            <path d="M2.946 18.736c-0.080 0.37-0.12 0.748-0.12 1.132 0 4.6 5.88 8.346 13.108 8.346 7.226 0 13.106-3.744 13.106-8.346 0-0.366-0.040-0.728-0.11-1.080l-0.020-0.044c-0.026-0.072-0.040-0.146-0.040-0.22-0.4-1.568-1.49-2.994-3.066-4.144-0.060-0.020-0.116-0.052-0.168-0.094-0.034-0.026-0.060-0.056-0.088-0.086-2.396-1.648-5.82-2.68-9.614-2.68-3.76 0-7.152 1.012-9.544 2.63-0.020 0.024-0.040 0.046-0.066 0.066-0.052 0.044-0.112 0.080-0.174 0.1-1.61 1.152-2.728 2.586-3.144 4.172 0 0.076-0.020 0.154-0.050 0.228l-0.010 0.020zM16 26.006c-2.396 0-4.084-0.52-5.16-1.6-0.232-0.232-0.232-0.61 0-0.844 0.234-0.22 0.614-0.22 0.848 0 0.84 0.84 2.25 1.26 4.31 1.26s3.46-0.4 4.3-1.24c0.22-0.22 0.6-0.22 0.84 0 0.22 0.24 0.22 0.62 0 0.86-1.080 1.080-2.76 1.6-5.16 1.6zM11.184 15.89c-1.22 0-2.24 1.020-2.24 2.24 0 1.216 1.020 2.204 2.24 2.204s2.206-0.988 2.206-2.204c0-1.22-0.988-2.24-2.206-2.24zM20.844 15.89c-1.22 0-2.24 1.020-2.24 2.24 0 1.216 1.020 2.204 2.24 2.204s2.206-0.988 2.206-2.204c0-1.22-0.988-2.24-2.206-2.24zM26.92 13.76c1.386 1.112 2.404 2.432 2.924 3.88 0.6-0.45 0.96-1.156 0.96-1.936 0-1.34-1.090-2.428-2.428-2.428-0.534 0-1.040 0.174-1.456 0.486zM3.624 13.28c-1.34 0-2.428 1.090-2.428 2.428 0 0.726 0.32 1.4 0.86 1.854 0.536-1.44 1.564-2.74 2.956-3.84-0.404-0.28-0.886-0.44-1.388-0.44zM15.934 29.414c-7.888 0-14.304-4.28-14.304-9.54 0-0.366 0.032-0.726 0.092-1.080-1.060-0.66-1.72-1.82-1.72-3.090 0-2 1.64-3.624 3.64-3.624 0.9 0 1.74 0.328 2.4 0.91 2.48-1.592 5.82-2.594 9.5-2.66l2.42-7.38 0.54 0.126s0.020 0 0.020 0.004l5.64 1.326c0.46-1.066 1.52-1.816 2.76-1.816 1.64 0 2.98 1.34 2.98 2.984 0 1.646-1.34 2.984-2.98 2.984s-2.98-1.34-2.98-2.98l-5.142-1.218-1.96 5.98c3.54 0.14 6.74 1.14 9.14 2.7 0.66-0.62 1.528-0.96 2.45-0.96 2 0 3.628 1.62 3.628 3.62 0 1.32-0.72 2.52-1.84 3.16 0.040 0.34 0.080 0.66 0.080 1-0.020 5.26-6.42 9.54-14.32 9.54zM26.86 3.786c-0.988 0-1.79 0.8-1.79 1.788 0 0.986 0.8 1.788 1.788 1.788 0.98 0 1.78-0.8 1.78-1.78s-0.8-1.78-1.8-1.78z"/>
        </symbol>
        <symbol id="icon-pocket" viewBox="0 0 32 32">
            <title>pocket</title>
            <path d="M25.066 13.68l-7.526 7.22c-0.426 0.408-0.972 0.612-1.52 0.612-0.546 0-1.094-0.204-1.52-0.612l-7.524-7.22c-0.874-0.836-0.9-2.226-0.064-3.1 0.84-0.876 2.228-0.904 3.1-0.066l6.010 5.76 6.020-5.76c0.88-0.84 2.26-0.81 3.1 0.064 0.84 0.86 0.82 2.26-0.060 3.1zM31.842 3.624c-0.4-1.144-1.5-1.912-2.72-1.912h-26.222c-1.2 0-2.288 0.752-2.714 1.872-0.126 0.332-0.19 0.68-0.19 1.030v9.656l0.11 1.92c0.464 4.368 2.73 8.184 6.24 10.846 0.060 0.048 0.126 0.094 0.19 0.14l0.040 0.030c1.88 1.374 3.984 2.304 6.256 2.764 1.048 0.21 2.12 0.32 3.184 0.32 0.984 0 1.972-0.092 2.944-0.272 0.116-0.040 0.232-0.060 0.35-0.080 0.032 0 0.066-0.020 0.1-0.040 2.176-0.48 4.196-1.38 6.008-2.7l0.040-0.040 0.18-0.14c3.5-2.66 5.76-6.48 6.24-10.86l0.1-1.92v-9.638c0-0.334-0.040-0.666-0.16-0.99z"/>
        </symbol>
        <symbol id="icon-telegram" viewBox="0 0 32 32">
            <title>telegram</title>
            <path d="M13.523,24.402c-0.595,0-0.494-0.226-0.699-0.791l-1.752-5.767l13.481-7.998"/>
            <path d="M13.523,24.402c0.46,0,0.663-0.21,0.921-0.461l2.451-2.381l-3.059-1.845"/>
            <path d="M12.535,21.326l11.857,8.76c1.354,0.747,2.331,0.361,2.668-1.256l4.828-22.745c0.496-1.983-0.752-2.88-2.046-2.294
	L1.494,14.724C-0.44,15.5-0.431,16.58,1.142,17.062l7.276,2.267L25.256,8.708c0.794-0.48,1.525-0.223,0.926,0.309"/>
        </symbol>
        <symbol id="icon-linkedin" viewBox="0 0 32 32">
            <title>linkedin</title>
            <path d="M27.263,27.269h-4.739v-7.425c0-1.771-0.036-4.049-2.469-4.049c-2.471,0-2.848,1.927-2.848,3.919v7.556h-4.739V12h4.552
	v2.081h0.061c0.636-1.2,2.183-2.467,4.493-2.467c4.801,0,5.689,3.16,5.689,7.273v8.381H27.263z M7.116,9.911
	c-1.525,0-2.751-1.235-2.751-2.753c0-1.517,1.227-2.751,2.751-2.751c1.52,0,2.752,1.233,2.752,2.751
	C9.868,8.676,8.635,9.911,7.116,9.911z M9.492,27.269H4.74V12h4.752V27.269z M29.633,0H2.361C1.056,0,0,1.032,0,2.305v27.389
	C0,30.969,1.056,32,2.361,32h27.268C30.933,32,32,30.969,32,29.695V2.305C32,1.032,30.933,0,29.629,0H29.633z"/>
        </symbol>
        <symbol id="icon-foursquare" viewBox="0 0 32 32">
            <title>foursquare</title>
            <path d="M24.803,4.62l-0.713,3.732c-0.085,0.404-0.593,0.831-1.068,0.831H16.38c-0.749,0-1.284,0.521-1.284,1.26v0.819
	c0,0.759,0.54,1.28,1.288,1.28h5.64c0.527,0,1.047,0.581,0.929,1.14l-0.713,3.68c-0.068,0.32-0.419,0.84-1.047,0.84h-4.609
	c-0.84,0-1.091,0.121-1.652,0.801c-0.56,0.699-5.608,6.759-5.608,6.759c-0.049,0.06-0.099,0.039-0.099-0.02V4.56
	c0-0.479,0.415-1.04,1.035-1.04h13.699c0.5,0,0.973,0.475,0.844,1.095C24.803,4.615,24.803,4.62,24.803,4.62z M25.404,19.26
	c0.193-0.771,2.328-11.712,3.041-15.18 M25.815,0H8.744C6.391,0,5.7,1.771,5.7,2.885v27.12c0,1.253,0.672,1.721,1.052,1.873
	c0.379,0.156,1.425,0.285,2.055-0.437c0,0,8.059-9.352,8.195-9.489c0.22-0.209,0.22-0.209,0.42-0.209h5.219
	c2.2,0,2.541-1.56,2.781-2.48c0.2-0.759,2.339-11.699,3.039-15.18C29,1.44,28.32,0,25.82,0H25.815z"/>
        </symbol>
        <symbol id="icon-flickr" viewBox="0 0 32 32">
            <title>flickr</title>
            <path d="M0,16.167c0,4.099,3.325,7.419,7.42,7.419c4.1,0,7.425-3.32,7.425-7.419S11.521,8.748,7.42,8.748
	C3.327,8.748,0,12.068,0,16.167z M17.155,16.167c0,4.099,3.324,7.419,7.423,7.419c4.084,0,7.423-3.32,7.423-7.419
	s-3.323-7.419-7.419-7.419C20.481,8.748,17.155,12.068,17.155,16.167z"/>
        </symbol>
        <symbol id="icon-dropbox" viewBox="0 0 32 32">
            <title>dropbox</title>
            <path d="M8,2.743L0,7.839l8,5.096l8.001-5.096L8,2.743z"/>
            <path d="M24,2.743l-8,5.096l8,5.096l8-5.096C32,7.839,24,2.743,24,2.743z M0,18.032l8,5.096l8.001-5.096L8,12.936L0,18.032z"/>
            <path d="M24,12.936l-8,5.096l8,5.096l8-5.096L24,12.936z M8,24.828l8.001,5.096l8-5.096l-8-5.096L8,24.828z"/>
        </symbol>
        <symbol id="icon-dribbble" viewBox="0 0 32 32">
            <title>dribbble</title>
            <path d="M16,32C7.18,32,0,24.82,0,16S7.18,0,16,0s16,7.18,16,16S24.82,32,16,32z M29.493,18.189
	c-0.467-0.147-4.227-1.271-8.512-0.584c1.787,4.912,2.516,8.912,2.656,9.744c3.067-2.073,5.248-5.36,5.86-9.16H29.493z M21.34,28.6
	c-0.204-1.2-1-5.376-2.92-10.36l-0.088,0.027c-7.72,2.687-10.48,8.033-10.72,8.533c2.307,1.811,5.227,2.888,8.387,2.888
	c1.893,0,3.693-0.387,5.333-1.085L21.34,28.6z M5.847,25.16c0.309-0.533,4.06-6.74,11.109-9.02c0.18-0.06,0.36-0.112,0.54-0.16
	c-0.347-0.78-0.72-1.556-1.109-2.32C9.56,15.7,2.941,15.613,2.341,15.6l-0.005,0.416c0,3.511,1.331,6.716,3.512,9.14L5.847,25.16z
	 M2.62,13.22c0.613,0.011,6.244,0.035,12.636-1.664c-2.264-4.024-4.707-7.411-5.067-7.904c-3.824,1.8-6.68,5.32-7.568,9.56
	L2.62,13.22z M12.8,2.736c0.376,0.507,2.86,3.885,5.096,8c4.86-1.82,6.92-4.587,7.164-4.936C22.647,3.653,19.473,2.352,16,2.352
	c-1.1,0-2.173,0.133-3.2,0.38L12.8,2.736z M26.58,7.38c-0.291,0.387-2.58,3.324-7.632,5.387c0.32,0.653,0.627,1.313,0.907,1.981
	c0.107,0.24,0.2,0.48,0.293,0.707c4.547-0.573,9.067,0.347,9.52,0.44c-0.027-3.227-1.173-6.187-3.08-8.507L26.58,7.38z"/>
        </symbol>
        <symbol id="icon-codepen" viewBox="0 0 32 32">
            <title>codepen</title>
            <path d="M32,10.952l-0.024-0.116l-0.023-0.067c-0.013-0.032-0.024-0.067-0.04-0.1c-0.004-0.024-0.02-0.045-0.027-0.067l-0.047-0.089
	l-0.04-0.067l-0.059-0.08l-0.061-0.06l-0.08-0.06l-0.061-0.04l-0.08-0.059L31.4,10.095l-0.02-0.027L16.773,0.296
	c-0.463-0.309-1.061-0.309-1.523,0L0.604,10.045l-0.02,0.02l-0.059,0.047l-0.08,0.067l-0.051,0.053l-0.067,0.075l-0.049,0.06
	l-0.067,0.08c-0.027,0.023-0.04,0.04-0.04,0.061l-0.067,0.08l-0.027,0.08c-0.027,0.013-0.027,0.053-0.04,0.093l-0.013,0.067
	C0,10.869,0,10.909,0,10.949v9.996c0,0.059,0.004,0.12,0.013,0.18l0.013,0.061c0.007,0.04,0.013,0.08,0.027,0.115l0.02,0.067
	c0.013,0.036,0.021,0.071,0.036,0.1l0.029,0.067c0,0.013,0.02,0.053,0.04,0.08l0.04,0.053c0.02,0.013,0.04,0.053,0.06,0.08
	l0.04,0.053l0.053,0.053c0.013,0.017,0.013,0.04,0.04,0.04l0.08,0.056l0.053,0.04l0.013,0.019l14.627,9.773
	c0.219,0.16,0.5,0.217,0.76,0.217c0.26,0,0.52-0.08,0.76-0.24l14.653-9.707l0.019-0.013l0.061-0.049l0.08-0.057l0.064-0.048
	l0.069-0.077l0.044-0.06l0.053-0.08l0.04-0.067l0.04-0.093l0.021-0.069l0.04-0.103l0.02-0.06l0.04-0.107v-10
	c0-0.067,0-0.127-0.021-0.187l-0.019-0.06l0.059,0.004L32,10.952z M16.013,19.325l-4.867-3.253l4.867-3.256l4.867,3.253
	l-4.867,3.253V19.325z M14.635,10.427l-5.964,3.987l-4.817-3.221l10.781-7.187v6.424L14.635,10.427z M6.195,16.071l-3.443,2.307
	v-4.601l3.443,2.301V16.071z M8.671,17.737l5.964,3.987v6.427L3.853,20.963l4.824-3.223v-0.005L8.671,17.737z M17.387,21.724
	l5.965-3.973l4.817,3.227l-10.783,7.187v-6.427V21.724z M25.827,16.084l3.444-2.293v4.608l-3.444-2.307V16.084z M23.353,14.431
	l-5.964-3.988v-6.44l10.78,7.187l-4.816,3.22v0.004V14.431z"/>
        </symbol>
        <symbol id="icon-viber" viewBox="0 0 32 32">
            <title>viber</title>
            <path d="M27.744,3.124c-0.795-0.732-4.008-3.067-11.168-3.1c0,0-8.441-0.507-12.553,3.268C1.73,5.586,0.925,8.931,0.84,13.094
	c-0.087,4.152-0.196,11.939,7.315,14.053h0.007l-0.007,3.221c0,0-0.045,1.305,0.812,1.571c1.039,0.32,1.648-0.672,2.64-1.737
	c0.545-0.585,1.296-1.451,1.863-2.109c5.135,0.429,9.084-0.555,9.532-0.7c1.036-0.339,6.901-1.088,7.857-8.877
	c0.984-8.028-0.476-13.107-3.117-15.396v0.005L27.744,3.124z M28.613,17.94c-0.82,6.501-5.579,6.916-6.44,7.195
	c-0.38,0.123-3.86,0.984-8.219,0.7c0,0-3.26,3.921-4.26,4.94c-0.161,0.161-0.361,0.221-0.481,0.193
	c-0.18-0.039-0.219-0.24-0.219-0.539l0.02-5.341c-0.02,0,0,0,0,0c-6.361-1.781-5.98-8.401-5.9-11.88
	c0.059-3.461,0.717-6.301,2.659-8.223c3.481-3.161,10.663-2.683,10.663-2.683c6.057,0.021,8.961,1.847,9.631,2.461
	c2.232,1.909,3.372,6.487,2.539,13.191L28.613,17.94z M10.316,6.644c0.323,0,0.612,0.145,0.839,0.415
	c0.005,0.003,0.773,0.927,1.107,1.379c0.313,0.427,0.735,1.107,0.948,1.487c0.38,0.68,0.139,1.376-0.229,1.664l-0.755,0.6
	c-0.38,0.305-0.333,0.871-0.333,0.871s1.12,4.209,5.279,5.271c0,0,0.568,0.052,0.872-0.328l0.601-0.759
	c0.284-0.38,0.979-0.62,1.659-0.241c0.38,0.2,1.06,0.621,1.488,0.939c0.452,0.32,1.376,1.101,1.381,1.101
	c0.44,0.361,0.539,0.919,0.24,1.479v0.021c-0.307,0.54-0.721,1.04-1.245,1.521h-0.011c-0.419,0.36-0.839,0.56-1.259,0.599
	c-0.04,0-0.1,0.021-0.181,0c-0.18,0-0.36-0.039-0.539-0.081v-0.019c-0.64-0.18-1.7-0.64-3.461-1.621
	c-1.14-0.639-2.099-1.28-2.919-1.94c-0.42-0.34-0.86-0.72-1.301-1.16l-0.101-0.037l-0.04-0.04l-0.039-0.039
	c-0.441-0.44-0.82-0.88-1.161-1.307c-0.64-0.812-1.28-1.769-1.919-2.919c-0.98-1.76-1.44-2.82-1.62-3.461H7.594
	c-0.06-0.179-0.1-0.359-0.08-0.539c-0.02-0.081,0-0.14,0-0.188c0.04-0.399,0.252-0.819,0.611-1.259h0.007
	c0.473-0.52,0.984-0.939,1.528-1.244c0.219-0.121,0.439-0.18,0.639-0.18h0.021C10.32,6.628,10.316,6.644,10.316,6.644z
	 M15.776,5.734h0.155l0.101,0.003h0.027l0.119,0.007h0.681l0.18,0.02h0.099l0.2,0.021h0.04l0.139,0.02h0.021l0.099,0.02
	c0.061,0,0.101,0.021,0.14,0.021h0.121l0.1,0.039l0.08,0.021l0.08,0.02l0.04,0.02h0.06l0.061,0.021h0.039l0.099,0.021l0.06,0.019
	l0.061,0.021l0.08,0.021l0.04,0.019c0.04,0,0.08,0.021,0.121,0.021l0.059,0.02l0.061,0.021l0.159,0.059l0.081,0.041l0.18,0.08
	l0.06,0.02l0.06,0.021l0.12,0.06l0.081,0.02l0.039,0.02l0.101,0.041l0.039,0.019l0.081,0.041L20,6.572l0.06,0.04l0.079,0.04
	L20.2,6.691l0.04,0.021l0.081,0.04l0.059,0.04l0.1,0.06l0.06,0.021l0.099,0.059l0.021,0.02l0.06,0.041l0.12,0.099l0.061,0.04
	l0.059,0.04l0.041,0.019l0.06,0.041l0.099,0.099l0.081,0.06l0.06,0.04l0.021,0.02l0.039,0.021l0.099,0.081l0.061,0.059l0.04,0.04
	l0.06,0.039l0.06,0.041l0.039,0.02l0.16,0.16l0.08,0.081l0.18,0.18l0.041,0.039c0.021,0.021,0.06,0.06,0.081,0.1l0.039,0.04
	l0.221,0.259l0.06,0.08c0.019,0.021,0.019,0.041,0.039,0.041l0.12,0.18l0.06,0.06l0.12,0.16l0.101,0.16l0.06,0.12l0.079,0.14
	l0.06,0.12l0.021,0.039l0.039,0.081l0.101,0.2l0.099,0.199l0.041,0.1c0.079,0.18,0.139,0.36,0.219,0.56
	c0.099,0.26,0.18,0.539,0.24,0.84c0.06,0.22,0.101,0.42,0.14,0.64l0.039,0.36l0.06,0.4c0.021,0.161,0.041,0.341,0.041,0.5
	c0.019,0.161,0.019,0.32,0.019,0.479v0.341c0,0.021-0.008,0.039-0.019,0.06c-0.021,0.04-0.041,0.06-0.081,0.1
	c-0.028,0.02-0.065,0.061-0.107,0.061c-0.039,0.019-0.079,0.019-0.12,0.019h-0.06c-0.039,0-0.079-0.019-0.12-0.039
	c-0.039-0.021-0.081-0.04-0.099-0.081c-0.021-0.039-0.06-0.081-0.081-0.12c-0.021-0.039-0.041-0.08-0.041-0.12v-0.479
	c-0.019-0.279-0.039-0.567-0.079-0.852c-0.021-0.195-0.06-0.379-0.081-0.56c0-0.099-0.021-0.195-0.039-0.279l-0.039-0.2
	l-0.051-0.188l-0.021-0.12l-0.06-0.2c-0.039-0.16-0.099-0.32-0.159-0.48c-0.039-0.121-0.081-0.22-0.14-0.319l-0.039-0.101
	l-0.18-0.36l-0.041-0.06c-0.081-0.18-0.18-0.36-0.3-0.521l-0.06-0.099h-0.268L21.91,9.352c-0.073-0.119-0.152-0.22-0.24-0.319
	l-0.167-0.2l-0.02-0.021l-0.061-0.076l-0.047-0.06l-0.1-0.099l-0.02-0.04l-0.093-0.08l-0.06-0.061l-0.111-0.1l-0.053-0.049
	l-0.061-0.06l-0.02-0.021c-0.021-0.02-0.06-0.06-0.1-0.08l-0.101-0.083l-0.04-0.02l-0.081-0.061l-0.099-0.08l-0.06-0.048
	l-0.04-0.021l-0.08-0.071c0-0.021-0.021-0.021-0.041-0.021l-0.039-0.039l-0.02-0.021V7.603l-0.04-0.019l-0.081-0.049l-0.059-0.041
	l-0.1-0.06l-0.08-0.06l-0.039-0.021l-0.043-0.017h-0.12l-0.025-0.021l-0.087-0.047L19.47,7.248l-0.04-0.021l-0.06-0.028h-0.016
	l-0.06-0.021l-0.033-0.02l-0.06-0.02l-0.013-0.015l-0.04-0.021l-0.071-0.039l-0.04-0.02l-0.12-0.04l-0.099-0.039l-0.183-0.021
	l-0.059-0.039c-0.02-0.013-0.04-0.021-0.061-0.021l-0.039-0.02c-0.039-0.015-0.06-0.021-0.1-0.04l-0.04-0.021h-0.039l-0.081-0.039
	l-0.039-0.021l-0.06-0.02h-0.123c-0.011,0-0.025-0.007-0.04-0.009h-0.12l-0.06-0.021h-0.02l-0.06-0.021h-0.055
	c-0.033-0.019-0.06-0.019-0.093-0.019L17.534,6.63l-0.08-0.02c-0.04-0.021-0.075-0.021-0.112-0.021l-0.06-0.02l-0.067-0.021
	l-0.06-0.019l-0.081-0.021h-0.081l-0.239-0.029h-0.12l-0.155-0.02h-0.101l-0.091-0.011h-0.04l-0.072-0.021h-0.38l-0.013-0.02h-0.081
	c-0.04,0-0.085-0.02-0.12-0.04c-0.04-0.021-0.081-0.039-0.108-0.08l-0.04-0.061c-0.039-0.039-0.039-0.08-0.06-0.12
	c-0.019-0.037-0.019-0.079-0.019-0.119c0-0.04,0-0.08,0.02-0.12c0.021-0.039,0.039-0.08,0.081-0.1c0.02-0.04,0.059-0.059,0.099-0.08
	c0.039-0.021,0.081-0.04,0.12-0.04h0.081C15.756,5.646,15.776,5.734,15.776,5.734z M16.514,7.832l0.049,0.004l0.081,0.008
	c0.011,0,0.024,0,0.039,0.004c0.029,0,0.06,0.005,0.1,0.008l0.08,0.011l0.032,0.021l0.06,0.02l0.064,0.02l0.06,0.021h0.04
	l0.056,0.02l0.093,0.02l0.075,0.021l0.035,0.019h0.097l0.159,0.037l0.061,0.02l0.06,0.02l0.06,0.021c0,0,0.02,0,0.02,0.02
	l0.061,0.02l0.059,0.021l0.06,0.021c0.02,0,0.04,0.019,0.061,0.019c0.009,0,0.019,0.021,0.033,0.021l0.085,0.04h0.039l0.12,0.04
	l0.067,0.039l0.061,0.04l0.144,0.06l0.08,0.02l0.041,0.041c0.06,0.019,0.12,0.059,0.18,0.079l0.064,0.04l0.064,0.04l0.065,0.039
	c0.06,0.04,0.109,0.061,0.161,0.101l0.039,0.019l0.055,0.041l0.029,0.02l0.1,0.06l0.049,0.04l0.087,0.057l0.039,0.02l0.04,0.02
	l0.061,0.04l0.08,0.061c0.02,0.019,0.029,0.019,0.045,0.039c0.013,0.02,0.021,0.02,0.033,0.04l0.044,0.04l0.048,0.039l0.04,0.04
	l0.061,0.061l0.039,0.04l0.021,0.021l0.12,0.119l0.021,0.021c0,0.02,0.02,0.04,0.039,0.04l0.021,0.017l0.06,0.061l0.039,0.06
	l0.04,0.04l0.06,0.08l0.061,0.061l0.12,0.159l0.019,0.039l0.081,0.101l0.021,0.039l0.02,0.041l0.02,0.039l0.021,0.04
	c0.021,0.02,0.021,0.04,0.039,0.08l0.057,0.101l0.021,0.02l0.039,0.081l0.041,0.059c0.019,0.02,0.019,0.039,0.039,0.06l0.04,0.06
	l0.04,0.081l0.039,0.079l0.021,0.061c0.02,0.059,0.06,0.1,0.08,0.16c0,0.02,0.02,0.039,0.02,0.06l0.06,0.159l0.081,0.26
	c0,0.021,0.02,0.06,0.02,0.081l0.061,0.18l0.059,0.24l0.061,0.32c0.019,0.099,0.019,0.18,0.039,0.281
	c0.021,0.159,0.04,0.317,0.04,0.479l0.02,0.28v0.22c0,0.021,0,0.039-0.02,0.06l-0.059,0.057c-0.039,0.031-0.06,0.06-0.099,0.081
	c-0.04,0.02-0.081,0.039-0.12,0.053c-0.041,0.021-0.1,0.021-0.14,0.021c-0.039,0-0.081-0.021-0.12-0.04
	c-0.021,0-0.04-0.021-0.06-0.028c-0.041-0.019-0.081-0.052-0.1-0.087c-0.04-0.04-0.061-0.08-0.061-0.121l-0.019-0.059V13.41
	c0-0.177-0.021-0.341-0.041-0.513c-0.02-0.18-0.059-0.38-0.099-0.56c-0.039-0.12-0.06-0.24-0.1-0.347l-0.04-0.121l-0.039-0.1
	l-0.021-0.04l-0.06-0.16l-0.06-0.12l-0.1-0.199l-0.092-0.16v-0.025l-0.039-0.063l-0.04-0.051l-0.06-0.1l-0.061-0.081l-0.119-0.159
	c-0.061-0.081-0.12-0.16-0.189-0.237c-0.019-0.02-0.039-0.039-0.039-0.06l-0.04-0.039l-0.023-0.021l-0.04-0.019l-0.04-0.036v-0.195
	l-0.159-0.151l-0.1-0.091V9.744l-0.04-0.041l-0.051-0.039l-0.02-0.021c0-0.02-0.021-0.02-0.039-0.02l-0.061-0.021l-0.02-0.02
	l-0.081-0.06L19.146,9.5l-0.021-0.02c-0.016-0.02-0.031-0.02-0.04-0.02l-0.08-0.06l-0.021-0.021l-0.08-0.039l-0.015-0.021
	l-0.06-0.039l-0.04-0.021l-0.04-0.039L18.71,9.179h-0.021c-0.039-0.039-0.08-0.059-0.14-0.08l-0.059-0.04L18.45,9.04l-0.021-0.021
	l-0.06-0.04l-0.059-0.02l-0.08-0.04l-0.061-0.02l-0.02-0.021l-0.075-0.019V8.843l-0.121-0.04l-0.08-0.04l-0.04-0.02h-0.08
	c-0.04-0.02-0.06-0.02-0.1-0.04h-0.059l-0.06-0.021h-0.059l-0.061-0.019l-0.039-0.021h-0.081l-0.081-0.02L17.174,8.6h-0.22
	l-0.092-0.02h-0.468l-0.061-0.021c-0.039-0.019-0.08-0.039-0.12-0.08c-0.019-0.04-0.06-0.08-0.08-0.119
	c-0.02-0.041-0.04-0.081-0.04-0.121v-0.12c0.008-0.061,0.021-0.1,0.04-0.14c0.011-0.02,0.02-0.04,0.04-0.06
	c0.024-0.04,0.06-0.08,0.1-0.1c0.02-0.02,0.04-0.02,0.059-0.039c0.041-0.021,0.081-0.021,0.121-0.021h0.08
	C16.533,7.759,16.514,7.832,16.514,7.832z M17.12,10.004c0.02,0,0.04,0,0.059,0.005c0.021,0,0.041,0,0.061,0.003l0.069,0.007
	c0.139,0.012,0.284,0.032,0.424,0.061l0.139,0.031l0.035,0.011l0.152,0.039l0.079,0.027l0.061,0.021
	c0.06,0.019,0.121,0.06,0.18,0.08l0.021,0.02l0.08,0.04l0.12,0.061l0.039,0.019c0.021,0.021,0.041,0.021,0.061,0.04
	c0.02,0.021,0.06,0.04,0.08,0.06c0.081,0.04,0.14,0.1,0.2,0.14l0.14,0.12l0.12,0.121l0.081,0.099l0.039,0.039l0.04,0.041l0.059,0.08
	l0.121,0.18l0.1,0.18l0.08,0.16l0.061,0.14c0.059,0.139,0.08,0.26,0.12,0.399c0.039,0.121,0.06,0.261,0.08,0.38l0.02,0.2
	l0.021,0.181v0.079c0,0.06-0.021,0.1-0.04,0.14c-0.02,0.039-0.061,0.099-0.1,0.12c-0.04,0.039-0.081,0.06-0.14,0.081
	c-0.039,0.019-0.08,0.019-0.12,0.019c-0.039,0-0.08,0-0.12-0.019l-0.139-0.061c-0.04-0.04-0.08-0.06-0.121-0.121
	c-0.02-0.039-0.039-0.08-0.06-0.139v-0.221l-0.02-0.14l-0.02-0.159l-0.021-0.14l-0.021-0.08c0-0.02-0.019-0.06-0.019-0.08
	c-0.04-0.161-0.12-0.32-0.2-0.48l-0.081-0.08l-0.063-0.08l-0.06-0.06l-0.02-0.04l-0.1-0.08l-0.081-0.081l-0.079-0.06
	c-0.021-0.02-0.04-0.02-0.081-0.039l-0.12-0.081l-0.081-0.04l-0.039-0.02h-0.021l-0.101-0.041l-0.12-0.04l-0.12-0.02h-0.1
	l-0.059-0.02l-0.047-0.009h-0.06l-0.08-0.021h-0.34l-0.02-0.1h-0.052c-0.04-0.005-0.073-0.02-0.107-0.039
	c-0.047-0.028-0.085-0.06-0.12-0.107c-0.024-0.039-0.045-0.081-0.06-0.12c-0.011-0.039-0.016-0.08-0.016-0.12
	c0-0.049,0-0.1,0.02-0.151c0.02-0.052,0.04-0.093,0.08-0.133l0.081-0.06c0.039-0.021,0.081-0.04,0.12-0.04l0.083-0.1
	C17.077,10.004,17.12,10.004,17.12,10.004z"/>
        </symbol>
        <symbol id="icon-whatsapp" viewBox="0 0 32 32">
            <title>whatsapp</title>
            <path d="M23.331,19.176c-0.401-0.2-2.356-1.156-2.72-1.288c-0.364-0.135-0.631-0.2-0.897,0.2c-0.263,0.393-1.028,1.285-1.259,1.549
	c-0.233,0.26-0.465,0.28-0.861,0.1c-0.4-0.2-1.684-0.62-3.204-1.98c-1.184-1.06-1.979-2.36-2.213-2.76
	c-0.232-0.4-0.025-0.62,0.173-0.82c0.181-0.18,0.401-0.46,0.601-0.697c0.195-0.241,0.259-0.401,0.396-0.661
	c0.133-0.28,0.065-0.5-0.033-0.699c-0.1-0.2-0.896-2.16-1.229-2.941c-0.32-0.779-0.649-0.68-0.896-0.68
	c-0.229-0.02-0.495-0.02-0.761-0.02S9.729,8.577,9.364,8.957c-0.364,0.4-1.393,1.36-1.393,3.3s1.427,3.82,1.625,4.1
	c0.199,0.26,2.807,4.26,6.8,5.98c0.952,0.4,1.693,0.64,2.272,0.839c0.952,0.303,1.82,0.26,2.507,0.161
	c0.765-0.121,2.356-0.961,2.688-1.901c0.34-0.94,0.34-1.72,0.24-1.9c-0.099-0.18-0.36-0.28-0.76-0.46 M16.081,29H16.06
	c-2.36,0-4.699-0.64-6.74-1.84l-0.48-0.285l-5,1.3l1.34-4.86l-0.319-0.5c-1.32-2.101-2.021-4.521-2.021-7.013
	c0-7.26,5.94-13.18,13.256-13.18c3.539,0,6.86,1.38,9.361,3.88c2.5,2.479,3.879,5.8,3.879,9.32
	c-0.005,7.259-5.947,13.18-13.247,13.18 M27.36,4.599C24.32,1.66,20.32,0,16.06,0C7.284,0,0.139,7.112,0.135,15.857
	c0,2.795,0.732,5.52,2.127,7.927L0,32l8.447-2.203c2.328,1.257,4.947,1.925,7.613,1.929h0.008c8.78,0,15.928-7.115,15.932-15.861
	c0-4.235-1.653-8.22-4.66-11.215"/>
        </symbol>
        <symbol id="icon-ok" viewBox="0 0 32 32">
            <title>ok</title>
            <path d="M16,16.198c4.584,0,8.3-3.627,8.3-8.099S20.583,0,16.001,0c-4.584,0-8.298,3.627-8.298,8.101
	c0,4.475,3.716,8.101,8.298,8.101L16,16.198z M16,4.114c2.255,0,4.084,1.783,4.084,3.983c0,2.205-1.831,3.986-4.084,3.986
	c-2.255,0-4.082-1.783-4.082-3.983C11.917,5.896,13.745,4.114,16,4.114z"/>
            <path d="M22.078,16.831c-2.329,1.792-6.076,1.792-6.076,1.792s-3.745,0-6.076-1.792c-1.725-1.326-3.023-0.564-3.49,0.356
	c-0.818,1.6,0.107,2.375,2.187,3.681c1.782,1.115,4.225,1.533,5.804,1.689l-1.316,1.284c-1.858,1.814-3.649,3.56-4.89,4.774
	c-0.725,0.701-0.744,1.857-0.042,2.582c0.014,0.014,0.028,0.028,0.042,0.042l0.222,0.219c0.751,0.724,1.939,0.724,2.69,0l4.89-4.774
	l4.89,4.772c0.751,0.726,1.943,0.726,2.694,0l0.224-0.22c0.725-0.701,0.745-1.857,0.044-2.582c-0.014-0.015-0.029-0.03-0.044-0.044
	l-4.89-4.776l-1.323-1.289c1.579-0.16,3.997-0.58,5.761-1.686c2.084-1.305,3.005-2.08,2.187-3.681
	c-0.466-0.919-1.764-1.682-3.489-0.356V16.831z"/>
        </symbol>
        <symbol id="icon-mymail" viewBox="0 0 32 32">
            <title>mymail</title>
            <path d="M9.945,10c1.473,0,2.667-1.194,2.667-2.667s-1.194-2.667-2.667-2.667S7.279,5.861,7.279,7.334S8.473,10,9.945,10z M22.39,10
	c1.473,0,2.667-1.194,2.667-2.667s-1.194-2.667-2.667-2.667s-2.667,1.194-2.667,2.667S20.917,10,22.39,10z M31.931,22.217
	l-3.605-6.057c-0.494-0.817-1.551-1.089-2.379-0.613c-0.812,0.459-1.099,1.489-0.64,2.301c0.006,0.011,0.012,0.021,0.018,0.031
	l0.427,0.72c-2.531,2.564-5.988,4.002-9.591,3.991c-3.599,0.011-7.051-1.424-9.582-3.982l0.43-0.729
	c0.475-0.803,0.21-1.838-0.593-2.314c-0.011-0.006-0.022-0.013-0.033-0.019c-0.828-0.476-1.884-0.204-2.379,0.613l-3.603,6.057
	c-0.475,0.803-0.21,1.838,0.593,2.314c0.011,0.006,0.022,0.013,0.033,0.019c0.828,0.473,1.881,0.201,2.377-0.613l1.369-2.297
	C7.895,24.457,11.955,26.011,16.16,26c4.209,0.012,8.272-1.544,11.395-4.366l1.369,2.302c0.495,0.814,1.549,1.086,2.377,0.613
	c0.814-0.456,1.104-1.485,0.648-2.299c-0.007-0.012-0.013-0.024-0.02-0.035L31.931,22.217z"/>
        </symbol>
        <symbol id="icon-rss" viewBox="0 0 32 32">
            <title>rss</title>
            <path d="M4.364,23.27c-1.212,0-2.243,0.425-3.092,1.273C0.425,25.392,0,26.422,0,27.634c0,1.212,0.424,2.242,1.272,3.09
		c0.849,0.849,1.88,1.274,3.092,1.274c1.212,0,2.241-0.425,3.09-1.274c0.848-0.848,1.272-1.878,1.272-3.09
		c0-1.212-0.424-2.241-1.272-3.09C6.605,23.695,5.576,23.27,4.364,23.27L4.364,23.27z M4.364,23.27"/>
            <path d="M14.408,17.59c-1.712-1.727-3.674-3.103-5.886-4.124c-2.212-1.023-4.53-1.633-6.954-1.83H1.455
		c-0.394,0-0.721,0.13-0.978,0.387C0.159,12.294,0,12.65,0,13.09v3.069c0,0.379,0.125,0.704,0.374,0.977
		c0.251,0.274,0.565,0.425,0.944,0.455c3.469,0.334,6.434,1.731,8.896,4.192c2.462,2.463,3.86,5.427,4.193,8.898
		c0.03,0.379,0.181,0.693,0.454,0.942c0.274,0.25,0.599,0.376,0.978,0.376h3.067c0.44,0,0.795-0.159,1.069-0.478
		c0.287-0.302,0.417-0.666,0.387-1.091c-0.197-2.423-0.807-4.741-1.83-6.953C17.509,21.264,16.135,19.302,14.408,17.59L14.408,17.59
		z M14.408,17.59"/>
            <path d="M29.269,19.078c-1.621-3.629-3.847-6.852-6.68-9.67c-2.819-2.833-6.041-5.06-9.67-6.682C9.291,1.106,5.491,0.198,1.523,0
		H1.455c-0.394,0-0.727,0.136-1,0.409C0.151,0.682,0,1.031,0,1.455v3.25c0,0.379,0.132,0.708,0.398,0.989
		c0.265,0.28,0.587,0.427,0.965,0.442c3.258,0.197,6.352,0.97,9.283,2.318c2.932,1.349,5.476,3.103,7.637,5.261
		c2.159,2.159,3.911,4.704,5.259,7.635c1.349,2.932,2.114,6.027,2.295,9.284c0.016,0.379,0.164,0.7,0.444,0.965
		c0.281,0.264,0.617,0.398,1.01,0.398h3.25c0.425,0,0.772-0.151,1.046-0.455c0.302-0.302,0.438-0.659,0.409-1.068
		C31.8,26.505,30.89,22.706,29.269,19.078L29.269,19.078z M29.269,19.078"/>
        </symbol>
        <symbol id="icon-search" viewBox="0 0 32 32">
            <title>search</title>
            <path d="M966.792,155.114h-1.458l-0.548-0.457c1.733-2.103,2.827-4.755,2.827-7.771c0-6.583-5.289-11.886-11.852-11.886
	c-6.474,0-11.761,5.303-11.761,11.886c0,6.583,5.288,11.886,11.852,11.886c2.918,0,5.653-1.097,7.749-2.834l0.547,0.457v1.463
	l9.117,9.143l2.735-2.743L966.792,155.114z M955.852,155.114c-4.559,0-8.205-3.657-8.205-8.229s3.647-8.229,8.205-8.229
	c4.558,0,8.205,3.657,8.205,8.229S960.41,155.114,955.852,155.114z"/>
            <path d="M22.792,20.114h-1.458l-0.548-0.457c1.733-2.103,2.827-4.754,2.827-7.771C23.613,5.303,18.325,0,11.761,0
	C5.288,0,0,5.303,0,11.886s5.288,11.886,11.852,11.886c2.918,0,5.653-1.097,7.749-2.834l0.547,0.457v1.463L29.265,32L32,29.257
	L22.792,20.114z M11.852,20.114c-4.558,0-8.205-3.657-8.205-8.229c0-4.571,3.647-8.228,8.205-8.228c4.558,0,8.205,3.657,8.205,8.228
	C20.057,16.457,16.41,20.114,11.852,20.114z"/>
        </symbol>
    </defs>
</svg>